# xmcd
#
# Track frame offsets:
#	150
#	18244
#	42038
#	64477
#	79790
#	97184
#	107913
#	129437
#	144985
#	165464
#	183085
#	203370
#
# Disc length: 2947 seconds
#
# Revision: 0
# Processed by: cddbd v1.5.2PL0 Copyright (c) Steve Scherf et al.
# Submitted via: audiograbber 1.83.01
#
DISCID=960b810c
DTITLE=Dave Hunt - 100 Horses
DYEAR=2017
DGENRE=Blues
TTITLE0=Across the USA
TTITLE1=100 Horses
TTITLE2=Blues Highway
TTITLE3=Love's Just A Killer
TTITLE4=Doghouse
TTITLE5=Moonshine Chevrolet
TTITLE6=Deadman's Shoes
TTITLE7=Tell Me
TTITLE8=Rehab
TTITLE9=I'm On Fire Baby
TTITLE10=I Told You
TTITLE11=Shot Down
EXTD=
EXTT0=
EXTT1=
EXTT2=
EXTT3=
EXTT4=
EXTT5=
EXTT6=
EXTT7=
EXTT8=
EXTT9=
EXTT10=
EXTT11=
PLAYORDER=
